Coordinates
version=1
nRows=6
nColumns=36
inDegrees=yes

Units are S.I. units (second, meters, Newtons, ...)
If the header above contains a line with 'inDegrees', this indicates whether rotational values are in degrees (yes) or radians (no).

endheader
time	pelvis_tilt	pelvis_list	pelvis_rotation	pelvis_tx	pelvis_ty	pelvis_tz	hip_flexion_r	hip_adduction_r	hip_rotation_r	knee_angle_r	knee_angle_r_beta	ankle_angle_r	subtalar_angle_r	mtp_angle_r	hip_flexion_l	hip_adduction_l	hip_rotation_l	knee_angle_l	knee_angle_l_beta	ankle_angle_l	subtalar_angle_l	mtp_angle_l	lumbar_extension	lumbar_bending	lumbar_rotation	arm_flex_r	arm_add_r	arm_rot_r	elbow_flex_r	pro_sup_r	arm_flex_l	arm_add_l	arm_rot_l	elbow_flex_l	pro_sup_l
      1.46666670	     -1.36770145	     -1.80629229	      2.31723123	      0.09681505	      1.05435095	     -0.05316421	     20.29658765	     -4.09758591	      2.21516664	     12.97739003	      0.22649818	    -23.85678358	     -3.92905038	     -7.49971240	     21.72164897	     -6.25761387	     -4.97759506	     13.58537607	      0.23710954	    -28.44602524	      2.65779970	     -7.49971240	    -12.95059540	      0.71786607	    -13.17964622	     40.12209716	    -46.05893736	     26.46460131	    114.85535552	     85.36520028	    -34.80613266	    -48.81252793	    -40.59122771	    130.41203414	     81.05778497
      1.48333330	     -0.53851787	     -1.72109274	      2.44300969	      0.12780999	      1.01893089	     -0.06797650	     21.94191943	     -4.58341166	      3.12546794	     18.17048951	      0.31713487	    -19.10199512	     -3.99744434	     -7.49980550	     23.57859383	     -5.86636197	     -3.36458182	     21.13786823	      0.36892540	    -20.61999004	      0.65828349	     -7.49980550	    -14.19549476	      0.32401197	    -11.59290177	     29.26183319	    -45.91606313	     20.17372303	    115.41901582	     88.75026365	    -35.05978280	    -44.89301750	    -36.28314913	    129.88654331	     84.04083084
      1.50000000	     -0.02423086	     -1.63861376	      1.96259160	      0.14768740	      0.97730948	     -0.06339510	     25.59520249	     -4.56745410	      4.24349518	     28.15372793	      0.49137525	     -9.82411677	     -5.41143932	     -7.49988962	     26.74249385	     -5.71794725	     -2.57316348	     32.09669593	      0.56019302	     -9.05532881	     -2.75386931	     -7.49988962	    -15.85738048	      0.24198308	     -7.89858773	     14.65008778	    -45.00343732	     10.14012689	    117.41193812	     90.22974187	    -28.61150581	    -43.07713895	    -24.85866092	    128.08111419	     88.59855616
      1.51666670	      1.06811627	     -1.78745573	      1.61526269	      0.15016166	      0.94414959	     -0.05698914	     31.01848844	     -4.16424210	      4.40702851	     41.83446860	      0.73014922	      0.67035174	     -7.01076356	     -7.49994452	     32.32557861	     -6.42625799	     -1.79254684	     47.39065798	      0.82712302	      2.53451634	     -5.29486060	     -7.49994452	    -18.97795795	      0.07229289	     -4.96239888	      6.55528071	    -41.86634205	      5.65581819	    115.69645427	     91.24354407	    -24.83632245	    -41.37210163	    -21.46193724	    119.43790738	     87.84911745
      1.53333330	      1.77995988	     -1.57550556	      1.58057548	      0.15816437	      0.91169909	     -0.05781050	     35.89527093	     -4.31244866	      4.85267411	     53.95057291	      0.94161513	      9.89322044	     -7.13324578	     -7.49996789	     37.67023304	     -6.58135733	     -0.66933321	     60.32125688	      1.05280454	     11.64888724	     -5.35367618	     -7.49996789	    -21.99060893	     -0.10152436	     -2.54085807	      0.21048475	    -38.60158630	      2.34228189	    111.45538807	     92.00620979	    -20.40126982	    -38.83906904	    -19.90520078	    108.44811599	     85.60989108
      1.55000000	      2.65368991	     -1.59913568	      1.84707592	      0.16543041	      0.87455655	     -0.05781207	     40.18819571	     -4.30631917	      5.08778247	     64.71067024	      1.12941426	     17.62518761	     -6.10220790	     -7.49997722	     43.15993595	     -6.61877184	      0.75394217	     72.63257384	      1.26767756	     18.36714402	     -5.08251713	     -7.49997722	    -24.99952752	      0.07271077	     -1.34560108	      1.46129406	    -35.88878577	      3.18304407	    103.80332843	     86.73226700	    -16.68885752	    -37.09308319	    -21.49809152	     99.54407316	     80.98644545
